<?xml version="1.0" standalone="no"?>
<!DOCTYPE svg PUBLIC "-//W3C//DTD SVG 20010904//EN"
 "http://www.w3.org/TR/2001/REC-SVG-20010904/DTD/svg10.dtd">
<svg version="1.0" xmlns="http://www.w3.org/2000/svg"
 width="6144.000000pt" height="3456.000000pt" viewBox="0 0 6144.000000 3456.000000"
 preserveAspectRatio="xMidYMid meet">

<g transform="translate(0.000000,3456.000000) scale(0.100000,-0.100000)"
fill="#000000" stroke="none">
<path d="M41660 30173 c-128 -25 -230 -94 -298 -200 -37 -58 -75 -177 -67
-210 3 -12 0 -23 -6 -25 -9 -3 -9 -10 1 -27 6 -13 10 -36 8 -53 -3 -16 -1 -31
4 -34 4 -3 8 7 8 23 0 15 4 35 9 42 6 9 6 22 1 32 -7 12 -4 21 9 33 17 16 19
15 24 -21 4 -21 4 -48 1 -60 -4 -14 -1 -25 7 -28 8 -3 15 -22 17 -42 1 -20 10
-41 19 -48 10 -7 12 -14 6 -18 -6 -4 -19 5 -29 19 -50 69 -48 68 -64 48 -8
-10 -10 -15 -3 -11 7 5 13 -6 18 -32 8 -49 87 -144 157 -188 165 -104 385 -81
540 57 108 96 154 249 123 412 -23 122 -119 249 -231 304 -47 23 -72 28 -143
30 -47 1 -97 0 -111 -3z m-307 -378 c-7 -21 -13 -19 -13 6 0 11 4 18 10 14 5
-3 7 -12 3 -20z m197 -54 c0 -17 5 -33 10 -36 14 -9 13 -65 -1 -65 -21 0 -38
34 -39 76 0 22 3 44 7 47 14 15 23 6 23 -22z m325 -61 c-3 -5 -14 -10 -23 -10
-15 0 -15 2 -2 10 20 13 33 13 25 0z"/>
<path d="M21725 30090 c-3 -5 1 -10 9 -10 9 0 16 5 16 10 0 6 -4 10 -9 10 -6
0 -13 -4 -16 -10z"/>
<path d="M21916 30077 c3 -10 9 -15 12 -12 3 3 0 11 -7 18 -10 9 -11 8 -5 -6z"/>
<path d="M21906 29982 c-3 -6 -1 -14 5 -17 15 -10 25 3 12 16 -7 7 -13 7 -17
1z"/>
<path d="M21720 29971 c0 -6 5 -13 10 -16 6 -3 10 1 10 9 0 9 -4 16 -10 16 -5
0 -10 -4 -10 -9z"/>
<path d="M21735 29930 l-30 -8 33 -1 c17 0 32 4 32 9 0 6 -1 9 -2 9 -2 -1 -16
-5 -33 -9z"/>
<path d="M21921 29884 c0 -11 3 -14 6 -6 3 7 2 16 -1 19 -3 4 -6 -2 -5 -13z"/>
<path d="M21685 29880 c3 -5 8 -10 11 -10 2 0 4 5 4 10 0 6 -5 10 -11 10 -5 0
-7 -4 -4 -10z"/>
<path d="M22066 29870 c-5 -14 -14 -28 -20 -32 -16 -11 6 -10 22 1 8 4 12 19
10 32 l-4 24 -8 -25z"/>
<path d="M22195 29850 c-4 -6 3 -10 14 -10 25 0 27 6 6 13 -8 4 -17 2 -20 -3z"/>
<path d="M21720 29820 c0 -5 5 -10 10 -10 6 0 10 5 10 10 0 6 -4 10 -10 10 -5
0 -10 -4 -10 -10z"/>
<path d="M21840 29734 c0 -8 5 -12 10 -9 6 4 8 11 5 16 -9 14 -15 11 -15 -7z"/>
<path d="M21885 29660 c3 -5 8 -10 11 -10 2 0 4 5 4 10 0 6 -5 10 -11 10 -5 0
-7 -4 -4 -10z"/>
<path d="M22080 29646 c0 -9 5 -16 10 -16 6 0 10 4 10 9 0 6 -4 13 -10 16 -5
3 -10 -1 -10 -9z"/>
<path d="M22150 29630 c-13 -8 -12 -10 3 -10 9 0 17 5 17 10 0 12 -1 12 -20 0z"/>
<path d="M21996 29592 c-2 -4 -1 -14 5 -22 7 -12 9 -10 9 8 0 23 -5 28 -14 14z"/>
<path d="M22020 29592 c0 -5 7 -13 16 -16 10 -4 14 -1 12 6 -5 15 -28 23 -28
10z"/>
<path d="M22150 29500 c0 -13 26 -19 41 -9 15 10 14 10 -18 14 -13 1 -23 -1
-23 -5z"/>
<path d="M22220 29500 c0 -5 5 -10 10 -10 6 0 10 5 10 10 0 6 -4 10 -10 10 -5
0 -10 -4 -10 -10z"/>
<path d="M22307 29451 c-3 -12 -1 -21 3 -21 14 0 19 15 11 29 -6 9 -10 7 -14
-8z"/>
<path d="M11969 28465 c-29 -30 -41 -31 -64 -5 -38 42 -57 29 -165 -117 -55
-76 -142 -196 -192 -268 -96 -135 -281 -393 -296 -410 -4 -5 -28 -39 -52 -75
-25 -35 -65 -92 -90 -126 -25 -34 -51 -70 -58 -80 -7 -11 -35 -50 -63 -89 -27
-38 -66 -92 -85 -120 -19 -27 -68 -97 -109 -155 -41 -58 -83 -116 -92 -130 -9
-14 -39 -54 -67 -89 -47 -60 -49 -65 -38 -94 8 -21 8 -35 2 -41 -23 -23 -10
-55 36 -91 50 -37 59 -41 69 -25 3 6 22 10 42 10 l36 0 -6 -45 c-4 -44 -3 -47
37 -74 103 -71 159 -86 191 -51 12 14 29 19 56 18 42 -1 79 19 106 58 10 14
28 36 41 48 58 55 132 132 132 138 0 4 9 9 19 13 11 3 24 19 29 34 6 16 26 51
45 78 49 71 81 133 83 166 2 33 57 95 91 103 23 6 59 48 86 99 8 17 36 53 62
80 25 28 54 68 65 90 11 22 19 36 20 30 0 -16 40 54 40 71 0 9 8 18 19 21 22
6 55 69 52 100 -1 12 14 48 35 80 20 32 36 58 35 58 -2 0 16 20 38 44 23 24
41 47 41 51 0 4 20 17 45 29 25 12 45 27 45 32 0 6 12 21 26 34 21 19 23 25
10 25 -9 0 -16 5 -16 10 0 6 9 10 21 10 11 0 18 4 15 9 -3 5 1 12 10 15 9 3
14 12 11 20 -3 8 2 16 12 19 12 3 20 17 24 46 3 28 20 61 52 104 25 34 48 61
51 59 3 -2 8 -1 12 2 3 3 -4 6 -16 6 -22 0 -30 24 -12 35 6 3 10 1 10 -4 0 -6
11 -11 25 -11 36 0 31 17 -7 25 -88 18 -107 26 -101 41 9 23 -35 53 -88 60
-27 4 -49 10 -49 15 0 5 -11 9 -24 9 -28 0 -70 58 -60 84 18 47 -86 65 -127
21z m311 -160 c17 -20 -7 -20 -34 0 -19 15 -19 15 1 15 11 0 26 -7 33 -15z
m-380 -186 c0 -5 -4 -9 -10 -9 -5 0 -10 7 -10 16 0 8 5 12 10 9 6 -3 10 -10
10 -16z m-306 -445 c20 -19 20 -16 -4 -69 -13 -28 -25 -42 -33 -39 -8 3 -22
-7 -33 -21 -10 -14 -22 -25 -26 -25 -14 0 -8 28 7 34 22 8 18 23 -6 29 -12 3
-18 10 -14 17 4 6 12 9 18 7 14 -4 47 35 47 55 0 30 21 36 44 12z m-134 -184
c0 -5 -5 -10 -11 -10 -5 0 -7 5 -4 10 3 6 8 10 11 10 2 0 4 -4 4 -10z m-350
-460 c0 -5 -4 -10 -10 -10 -5 0 -10 5 -10 10 0 6 5 10 10 10 6 0 10 -4 10 -10z"/>
<path d="M11565 27630 c3 -5 8 -10 11 -10 2 0 4 5 4 10 0 6 -5 10 -11 10 -5 0
-7 -4 -4 -10z"/>
<path d="M22880 27613 c0 -5 -26 -9 -58 -11 -31 -2 -84 -12 -116 -23 -33 -10
-68 -19 -78 -19 -10 0 -18 -4 -18 -10 0 -5 -10 -10 -21 -10 -22 0 -102 -54
-130 -88 -9 -10 -25 -25 -35 -33 -25 -18 -103 -122 -130 -174 -41 -76 -56
-152 -57 -290 -1 -145 5 -167 100 -363 51 -105 82 -147 218 -298 88 -96 140
-152 285 -301 63 -65 129 -134 146 -153 57 -64 151 -149 158 -143 3 3 6 15 6
25 0 10 4 18 8 18 5 0 17 20 28 45 10 25 22 45 26 45 4 0 7 3 6 8 -3 15 24 67
29 54 3 -7 -1 -19 -7 -28 -7 -8 -10 -17 -6 -21 3 -3 6 -2 6 4 0 6 9 13 21 16
20 5 20 6 3 38 -15 30 -15 34 0 44 9 7 16 18 16 25 0 7 3 10 7 7 7 -8 33 11
33 24 0 5 -7 9 -15 9 -8 0 -15 4 -15 9 0 17 41 79 55 85 8 3 15 12 15 20 0 10
-6 13 -16 9 -13 -5 -15 -1 -9 18 4 13 15 36 26 51 10 15 19 34 19 42 0 28 32
96 45 96 7 0 15 19 19 46 3 26 12 54 19 62 6 8 12 27 12 41 0 14 5 25 11 24 7
-1 9 8 6 22 -2 15 0 25 7 25 6 0 11 8 11 19 0 10 7 24 15 31 16 13 21 35 6 26
-10 -6 47 163 60 180 5 7 7 29 4 50 -4 22 -2 50 3 64 7 19 6 28 -5 39 -8 7
-11 20 -7 30 12 29 17 68 6 52 -11 -16 -27 105 -16 132 4 12 1 17 -10 17 -10
0 -16 9 -16 24 0 13 -7 26 -15 30 -8 3 -14 9 -14 13 3 13 -13 45 -33 65 -9 9
-15 24 -12 33 4 10 0 15 -10 15 -9 0 -22 11 -28 25 -6 14 -19 25 -28 25 -10 0
-25 11 -34 25 -9 14 -23 25 -31 25 -7 0 -20 8 -27 18 -15 22 -83 60 -118 66
-18 4 -107 40 -114 47 -12 11 -206 12 -206 2z"/>
<path d="M46700 26835 c-14 -8 -33 -18 -42 -21 -10 -3 -18 -10 -18 -14 0 -5
-17 -35 -39 -67 -21 -32 -64 -102 -96 -155 -32 -54 -62 -98 -66 -98 -5 0 -9
-4 -9 -10 0 -5 -26 -45 -57 -88 -32 -44 -80 -111 -108 -151 -83 -120 -243
-335 -270 -365 -6 -6 -21 -27 -35 -46 -13 -19 -42 -56 -64 -81 -84 -94 -116
-132 -116 -140 0 -4 -9 -11 -20 -14 -11 -3 -20 -12 -20 -20 0 -7 -7 -15 -15
-19 -8 -3 -15 -11 -15 -17 0 -7 -12 -25 -27 -40 -16 -16 -46 -51 -68 -78 -22
-27 -46 -50 -52 -50 -7 -1 -13 -7 -13 -15 0 -7 -8 -20 -17 -27 -15 -12 -16
-12 -9 6 4 10 10 38 13 62 6 44 2 49 -35 44 -24 -4 -126 -93 -144 -125 -9 -17
-21 -32 -27 -32 -24 -3 -25 -5 -11 -14 12 -8 12 -10 -3 -16 -9 -3 -17 -12 -17
-20 0 -7 -6 -17 -12 -21 -16 -10 -46 -54 -73 -105 -11 -21 -23 -38 -27 -38 -5
0 -8 -7 -8 -15 0 -7 -6 -18 -12 -22 -7 -4 -14 -17 -15 -28 -8 -69 -14 -90 -30
-106 -10 -9 -34 -35 -54 -56 -19 -21 -52 -47 -72 -58 -20 -11 -37 -25 -37 -33
0 -7 -13 -21 -30 -30 -16 -9 -30 -24 -30 -32 0 -9 -5 -21 -12 -28 -9 -9 -8
-12 5 -12 13 0 17 -9 17 -35 0 -36 18 -85 31 -85 5 0 20 -18 34 -40 14 -22 31
-40 38 -40 14 0 57 -32 96 -71 14 -14 33 -28 41 -32 8 -4 29 -16 45 -26 17
-11 40 -20 53 -20 101 -3 569 470 980 991 121 152 148 217 102 246 -11 6 -17
18 -14 26 3 9 -3 17 -15 21 -27 8 -27 25 -1 25 14 0 18 5 14 18 -4 10 -2 13 3
7 21 -27 83 -53 107 -47 91 25 568 740 647 970 23 68 13 92 -55 131 -28 15
-72 50 -97 77 -25 27 -56 54 -70 60 -83 39 -110 42 -149 19z m-735 -1335 c8
-14 -29 -94 -57 -123 -13 -13 -41 -37 -63 -53 -22 -16 -63 -48 -91 -71 -28
-24 -54 -43 -58 -43 -3 0 -6 11 -6 24 0 32 59 105 161 199 82 75 102 87 114
67z"/>
<path d="M45965 26178 c-35 -20 -97 -79 -184 -177 -47 -53 -90 -101 -95 -107
-6 -6 -27 -30 -46 -54 -19 -24 -40 -48 -45 -54 -22 -24 -75 -94 -75 -100 0 -4
-18 -29 -39 -56 -22 -27 -41 -55 -44 -62 -2 -7 -8 -10 -12 -5 -5 4 -4 12 2 18
6 6 8 19 6 30 -12 45 -36 21 -199 -196 -112 -151 -142 -196 -149 -232 -6 -26
-4 -25 40 20 25 26 50 47 56 47 5 0 9 6 9 13 0 7 8 20 18 28 9 9 28 31 42 49
14 18 41 52 61 74 20 23 39 49 42 59 7 18 27 24 27 7 0 -5 -5 -10 -11 -10 -8
0 -7 -6 2 -17 12 -15 12 -16 -3 -10 -12 4 -15 2 -11 -9 8 -23 54 -30 68 -11 7
9 15 14 18 11 3 -3 11 4 17 16 7 13 17 19 26 16 9 -4 18 3 24 19 10 26 24 32
35 15 9 -14 37 -12 32 3 -2 6 11 32 30 56 18 24 33 48 33 52 0 5 10 9 22 9 21
0 21 0 2 15 -21 16 -21 16 20 21 42 5 58 12 51 24 -3 5 1 10 9 10 9 0 16 5 16
11 0 7 11 22 24 34 22 20 53 97 48 118 -2 5 7 21 18 37 11 15 20 33 20 38 0 5
7 12 15 16 8 3 15 15 15 26 0 11 4 20 9 20 5 0 13 10 16 23 9 28 44 67 62 67
16 0 17 27 1 32 -7 3 -8 9 -3 18 11 18 16 60 7 60 -4 0 -16 -6 -27 -12z"/>
<path d="M23210 25760 c0 -5 5 -10 10 -10 6 0 10 5 10 10 0 6 -4 10 -10 10 -5
0 -10 -4 -10 -10z"/>
<path d="M47582 25688 c-48 -37 -53 -59 -17 -78 24 -13 28 -11 60 20 131 127
388 -77 334 -267 -11 -42 -11 -47 6 -59 43 -32 68 -1 67 83 -1 159 -182 333
-347 333 -54 0 -66 -4 -103 -32z"/>
<path d="M46320 25589 c0 -5 5 -7 10 -4 6 3 10 8 10 11 0 2 -4 4 -10 4 -5 0
-10 -5 -10 -11z"/>
<path d="M48370 25580 c0 -5 5 -10 10 -10 6 0 10 5 10 10 0 6 -4 10 -10 10 -5
0 -10 -4 -10 -10z"/>
<path d="M45360 25390 c0 -5 5 -10 10 -10 6 0 10 5 10 10 0 6 -4 10 -10 10 -5
0 -10 -4 -10 -10z"/>
<path d="M47425 25358 c-43 -11 -99 -48 -127 -82 -23 -28 -22 -31 7 -50 24
-16 26 -15 64 23 59 59 161 78 207 40 21 -17 17 -33 -21 -93 l-35 -55 22 -21
c12 -11 25 -20 30 -20 4 0 26 27 48 61 23 33 47 59 53 57 7 -2 22 -24 34 -49
26 -52 30 -141 8 -179 -20 -35 -18 -63 5 -77 40 -25 80 50 80 150 0 187 -198
343 -375 295z"/>
<path d="M23438 25208 c-14 -29 -33 -71 -43 -93 -9 -22 -21 -47 -25 -56 -5
-10 -4 -21 3 -28 8 -8 7 -19 -7 -42 -23 -39 -10 -58 28 -41 22 10 25 9 28 -11
2 -12 9 -21 17 -19 8 2 17 -1 20 -5 3 -5 22 -19 42 -32 19 -13 40 -33 45 -45
10 -22 42 -24 57 -3 5 7 6 3 2 -9 -8 -29 22 -55 39 -33 6 9 17 14 24 12 6 -3
12 0 12 5 0 5 12 12 28 15 26 6 63 31 105 70 13 13 17 26 13 42 -3 13 -2 27 4
30 18 11 10 41 -17 66 -57 52 -317 228 -338 229 -6 0 -22 -24 -37 -52z"/>
<path d="M45193 25230 c-18 -16 -33 -32 -33 -35 0 -3 -13 -18 -28 -33 -16 -15
-31 -34 -34 -42 -3 -8 -39 -58 -79 -111 -93 -120 -149 -223 -131 -241 9 -9 27
4 83 63 39 40 77 84 86 97 8 12 22 22 29 22 8 0 14 5 14 10 0 14 41 72 58 83
6 4 12 14 12 21 0 8 7 20 17 27 9 8 22 29 30 47 7 17 17 32 22 32 12 0 23 48
16 71 -9 26 -24 23 -62 -11z"/>
<path d="M48132 25190 c6 -18 183 -150 186 -140 5 14 -45 72 -77 89 -14 8 -39
25 -54 37 -29 25 -61 32 -55 14z"/>
<path d="M46374 24696 c6 -19 12 -33 14 -31 7 6 -9 65 -17 65 -5 0 -3 -15 3
-34z"/>
<path d="M14125 24524 c-88 -6 -208 -17 -265 -23 -108 -11 -492 -48 -590 -56
-217 -18 -421 -38 -515 -50 -60 -8 -164 -19 -230 -25 -278 -25 -452 -54 -510
-84 l-40 -21 -3 -93 -3 -93 36 4 c23 3 42 -1 51 -10 18 -18 6 -35 -36 -53 -34
-14 -35 -22 -16 -103 16 -68 39 -97 76 -97 14 0 31 -5 37 -11 8 -8 90 -3 300
20 158 17 333 36 388 41 55 6 145 15 200 21 55 5 136 14 180 19 74 9 401 39
820 75 262 23 353 36 366 52 7 8 11 35 10 60 -2 53 6 86 19 78 5 -3 12 0 16 6
3 6 0 15 -7 20 -21 13 -3 22 20 9 18 -9 21 -8 21 10 0 11 3 20 8 20 4 0 15 7
26 15 17 13 17 15 3 29 -9 9 -24 16 -34 16 -22 0 -48 19 -56 40 -4 12 -6 11
-6 -2 -1 -28 -21 -21 -21 7 0 16 -6 25 -15 25 -12 0 -14 8 -10 32 3 17 8 35
10 38 3 4 -4 19 -15 33 -11 14 -20 30 -20 36 0 23 -42 27 -195 15z m146 -268
c5 -17 7 -32 5 -33 -9 -9 -56 22 -56 37 0 41 40 38 51 -4z m-332 -57 c-22 -14
-42 -10 -69 11 -21 17 -23 21 -10 30 8 5 27 10 43 10 15 0 27 6 28 13 1 6 6
-3 12 -21 8 -27 7 -36 -4 -43z m124 62 c17 -2 5 -21 -14 -21 -11 0 -30 -5 -41
-11 -23 -13 -44 1 -35 24 4 12 39 15 90 8z m57 -11 c0 -5 -5 -10 -11 -10 -5 0
-7 5 -4 10 3 6 8 10 11 10 2 0 4 -4 4 -10z m67 4 c-3 -3 -12 -4 -19 -1 -8 3
-5 6 6 6 11 1 17 -2 13 -5z m-747 -14 c23 12 50 7 50 -9 0 -14 -52 -66 -80
-81 -17 -9 -54 -10 -139 -4 -64 4 -145 8 -181 9 -101 3 -112 4 -106 14 8 12
56 11 56 -2 0 -7 7 -1 16 11 8 12 20 20 25 17 5 -4 15 -3 21 1 7 5 33 10 57
12 24 2 87 11 140 21 57 10 101 14 108 8 7 -5 20 -4 33 3z m-805 -80 c4 -6 1
-17 -5 -25 -6 -8 -9 -18 -6 -23 3 -5 -2 -18 -10 -30 -13 -19 -25 -22 -83 -22
-71 0 -95 10 -105 46 -10 32 12 42 97 47 43 3 81 7 84 11 9 9 21 7 28 -4z
m-500 -100 c4 -6 -7 -10 -27 -10 -25 0 -29 3 -18 10 19 13 37 13 45 0z"/>
<path d="M49505 24490 c-3 -5 -1 -10 4 -10 6 0 11 5 11 10 0 6 -2 10 -4 10 -3
0 -8 -4 -11 -10z"/>
<path d="M48540 24486 c0 -2 8 -10 18 -17 15 -13 16 -12 3 4 -13 16 -21 21
-21 13z"/>
<path d="M49580 24395 c0 -8 2 -15 4 -15 2 0 6 7 10 15 3 8 1 15 -4 15 -6 0
-10 -7 -10 -15z"/>
<path d="M49440 24339 c0 -22 4 -38 8 -35 8 5 4 76 -4 76 -2 0 -4 -18 -4 -41z"/>
<path d="M49561 24354 c0 -11 3 -14 6 -6 3 7 2 16 -1 19 -3 4 -6 -2 -5 -13z"/>
<path d="M48920 24332 c0 -19 12 -42 22 -42 14 0 5 43 -9 48 -7 2 -13 -1 -13
-6z"/>
<path d="M49540 24316 c0 -9 -4 -16 -8 -16 -5 0 -14 -12 -21 -26 -9 -20 -9
-30 0 -40 19 -23 28 -16 27 21 -1 19 4 41 11 49 8 10 9 16 1 21 -5 3 -10 -1
-10 -9z"/>
<path d="M49671 24314 c0 -11 3 -14 6 -6 3 7 2 16 -1 19 -3 4 -6 -2 -5 -13z"/>
<path d="M50514 24297 c-12 -12 -29 -36 -38 -54 -15 -30 -51 -52 -63 -39 -11
10 -43 -15 -43 -34 0 -10 -5 -22 -10 -25 -12 -8 -109 46 -135 75 -20 22 -58
26 -72 8 -5 -7 -20 -42 -33 -78 -57 -159 -170 -360 -388 -688 -67 -101 -122
-190 -122 -198 0 -21 30 -65 40 -59 5 3 25 -11 44 -31 27 -28 36 -46 36 -71 0
-37 -38 -105 -79 -140 -41 -36 -54 -33 -167 45 -26 17 -50 32 -53 31 -3 0 -29
-28 -57 -62 -29 -34 -87 -105 -130 -157 -124 -148 -284 -322 -448 -485 -199
-197 -285 -275 -395 -355 -12 -8 -36 -26 -56 -40 -45 -33 -50 -48 -20 -60 14
-5 25 -14 25 -20 0 -6 11 -15 25 -20 30 -11 33 -45 9 -97 -20 -41 -9 -70 37
-97 30 -18 31 -36 2 -36 -9 0 -25 7 -35 16 -14 14 -20 14 -33 4 -8 -7 -15 -23
-15 -36 0 -13 -3 -24 -8 -24 -4 0 -18 -27 -30 -60 -23 -59 -23 -107 1 -93 7 3
4 -3 -6 -14 -17 -20 -17 -22 -1 -31 9 -5 14 -14 10 -21 -8 -12 -28 3 -39 29
-3 8 -6 0 -6 -18 -1 -20 3 -31 9 -27 14 9 12 -29 -2 -43 -9 -9 -8 -12 4 -12 9
0 19 -7 22 -16 4 -9 9 -14 13 -10 3 3 12 -3 20 -14 8 -11 21 -20 30 -20 9 0
25 -8 36 -17 11 -10 17 -13 13 -6 -5 9 3 10 27 6 40 -6 101 19 199 83 37 25
79 49 94 54 36 14 84 9 94 -10 5 -9 37 -31 72 -49 75 -40 120 -38 220 7 199
90 544 385 898 767 191 206 468 548 597 737 31 46 59 85 63 88 20 15 210 329
264 438 109 216 136 330 98 415 -11 25 -30 51 -42 57 -12 6 -31 20 -43 31 -70
61 -95 82 -126 107 l-33 28 11 119 c14 140 11 146 -80 170 -69 19 -83 19 -76
0 4 -8 1 -17 -6 -21 -7 -4 -9 -4 -6 0 4 4 -4 19 -18 34 -13 15 -32 35 -40 45
-21 22 -33 21 -59 -6z m-418 -1372 c4 -8 14 -15 24 -15 10 0 23 -7 30 -15 7
-8 16 -12 21 -9 12 7 57 -24 106 -73 23 -24 48 -40 56 -38 18 7 97 -62 97 -86
0 -37 -88 -162 -137 -194 -19 -13 -25 -13 -50 0 -15 8 -38 15 -50 15 -12 0
-24 4 -27 9 -3 4 -18 11 -33 14 -16 3 -50 26 -78 52 -27 25 -63 53 -80 61 -16
8 -45 27 -64 42 l-33 28 21 43 c27 53 136 161 162 161 11 0 17 5 14 10 -3 6
-1 10 5 10 6 0 13 -7 16 -15z m-196 -30 c0 -8 -7 -15 -15 -15 -8 0 -15 -5 -15
-12 0 -6 -3 -8 -7 -5 -3 4 2 16 12 27 22 24 25 25 25 5z m-320 -289 c0 -8 -8
-21 -17 -28 -10 -7 -19 -20 -21 -28 -2 -8 -22 -31 -44 -50 -23 -19 -57 -50
-77 -68 -52 -49 -71 -58 -71 -33 0 27 120 154 166 176 19 9 38 23 41 31 7 18
23 18 23 0z m-230 -50 c0 -3 -4 -8 -10 -11 -5 -3 -10 -1 -10 4 0 6 5 11 10 11
6 0 10 -2 10 -4z m-80 -545 c0 -6 -4 -13 -10 -16 -5 -3 -10 1 -10 9 0 9 5 16
10 16 6 0 10 -4 10 -9z m-963 -723 c-3 -7 -5 -2 -5 12 0 14 2 19 5 13 2 -7 2
-19 0 -25z"/>
<path d="M49654 24278 c-4 -7 -14 -23 -22 -35 -8 -13 -12 -23 -9 -23 9 0 50
61 44 66 -3 3 -8 -1 -13 -8z"/>
<path d="M48841 24203 c-1 -12 4 -25 9 -28 12 -7 12 2 0 30 -8 19 -9 19 -9 -2z"/>
<path d="M48940 24190 c0 -5 5 -10 10 -10 6 0 10 5 10 10 0 6 -4 10 -10 10 -5
0 -10 -4 -10 -10z"/>
<path d="M36198 24013 c-14 -9 -39 -36 -53 -60 -22 -34 -32 -42 -49 -37 -16 4
-27 -3 -42 -23 -38 -53 -37 -61 10 -108 42 -40 44 -45 36 -80 -6 -28 -5 -38 7
-42 24 -9 62 18 68 49 4 15 12 34 18 41 24 25 77 96 77 102 0 3 9 16 21 28 37
39 42 65 18 103 -11 19 -29 34 -39 34 -10 0 -24 2 -32 5 -7 2 -25 -3 -40 -12z"/>
<path d="M46770 23960 c0 -5 4 -10 10 -10 5 0 13 -18 16 -40 4 -22 10 -40 15
-40 10 0 1 56 -13 83 -9 18 -28 23 -28 7z"/>
<path d="M46881 23884 c0 -11 3 -14 6 -6 3 7 2 16 -1 19 -3 4 -6 -2 -5 -13z"/>
<path d="M46780 23810 c-13 -9 -13 -11 0 -20 10 -6 16 -6 18 0 7 20 -3 30 -18
20z"/>
<path d="M47038 23764 c-4 -3 2 -14 13 -25 10 -10 19 -30 19 -44 0 -14 4 -25
10 -25 5 0 7 14 3 33 -10 55 -28 79 -45 61z"/>
<path d="M36345 23750 c3 -5 10 -10 16 -10 5 0 9 5 9 10 0 6 -7 10 -16 10 -8
0 -12 -4 -9 -10z"/>
<path d="M46695 23721 c-6 -11 9 -23 19 -14 9 9 7 23 -3 23 -6 0 -12 -4 -16
-9z"/>
<path d="M47150 23680 c0 -5 5 -10 10 -10 6 0 10 5 10 10 0 6 -4 10 -10 10 -5
0 -10 -4 -10 -10z"/>
<path d="M46940 23657 c0 -7 7 -22 16 -33 14 -17 15 -17 10 -1 -3 10 -6 25 -6
33 0 8 -4 14 -10 14 -5 0 -10 -6 -10 -13z"/>
<path d="M36024 23636 c3 -13 8 -36 12 -52 10 -42 73 -136 86 -128 5 4 18 25
29 48 20 46 18 52 -43 119 -24 26 -43 37 -62 37 -25 0 -28 -3 -22 -24z"/>
<path d="M46453 23629 c4 -13 7 -27 7 -31 0 -5 4 -8 9 -8 11 0 1 49 -12 57 -6
4 -8 -2 -4 -18z"/>
<path d="M46530 23609 c0 -5 5 -7 10 -4 6 3 10 8 10 11 0 2 -4 4 -10 4 -5 0
-10 -5 -10 -11z"/>
<path d="M47070 23594 c0 -8 5 -12 10 -9 6 4 8 11 5 16 -9 14 -15 11 -15 -7z"/>
<path d="M46881 23584 c8 -10 19 -29 26 -43 8 -18 12 -21 12 -9 1 27 -21 68
-37 68 -12 0 -12 -2 -1 -16z"/>
<path d="M46986 23521 c-4 -7 -5 -15 -2 -18 9 -9 19 4 14 18 -4 11 -6 11 -12
0z"/>
<path d="M35915 23511 c3 -5 1 -13 -5 -16 -12 -8 5 -35 22 -35 6 0 6 6 -1 14
-6 7 -9 21 -5 30 3 9 1 16 -6 16 -6 0 -9 -4 -5 -9z"/>
<path d="M46791 23504 c0 -11 3 -14 6 -6 3 7 2 16 -1 19 -3 4 -6 -2 -5 -13z"/>
<path d="M35601 23471 c-12 -8 -9 -15 12 -41 15 -17 27 -38 27 -45 0 -7 -15
-33 -33 -57 -18 -24 -47 -64 -65 -90 -34 -50 -61 -60 -102 -38 -22 12 -50 3
-50 -16 0 -8 9 -23 20 -34 30 -30 25 -54 -25 -110 -25 -28 -45 -57 -45 -65 0
-17 139 -122 172 -130 13 -3 28 -2 34 2 16 11 34 49 34 70 0 27 37 48 56 32
20 -17 14 -51 -12 -64 -61 -30 -69 -63 -27 -107 32 -33 41 -34 86 -8 23 14 33
26 31 38 -3 9 7 29 21 44 26 28 40 28 80 1 48 -32 67 3 30 57 -31 45 -31 55 0
96 14 18 25 35 25 38 0 2 19 25 42 50 44 49 84 60 108 31 16 -20 30 -19 45 2
11 15 6 28 -39 91 -28 41 -60 78 -71 82 -11 4 -34 21 -52 37 -74 67 -111 89
-187 115 -90 31 -95 31 -115 19z m249 -271 c0 -24 -23 -61 -68 -110 -76 -82
-76 -83 -86 -48 -4 16 1 29 18 43 13 11 30 36 39 55 9 19 25 45 37 58 27 28
60 29 60 2z"/>
<path d="M46911 23444 c0 -11 3 -14 6 -6 3 7 2 16 -1 19 -3 4 -6 -2 -5 -13z"/>
<path d="M48390 22933 c0 -6 19 -23 43 -39 23 -16 48 -35 55 -41 7 -7 18 -13
24 -13 8 0 -13 18 -109 93 -9 6 -13 6 -13 0z"/>
<path d="M48558 22798 c23 -25 31 -40 26 -54 -6 -17 -4 -17 17 3 23 22 23 23
4 37 -11 8 -33 22 -50 32 l-30 17 33 -35z"/>
<path d="M48360 22803 c0 -5 5 -15 10 -23 7 -12 12 -12 22 -2 10 10 10 15 -2
22 -18 12 -30 13 -30 3z"/>
<path d="M48415 22760 c4 -14 7 -33 8 -42 2 -27 17 -22 17 5 0 13 -7 32 -16
43 -15 18 -15 18 -9 -6z"/>
<path d="M48306 22703 c-11 -11 -6 -23 9 -23 8 0 15 4 15 9 0 13 -16 22 -24
14z"/>
<path d="M48120 22657 c0 -15 4 -27 9 -27 6 0 8 10 6 21 -6 33 -15 36 -15 6z"/>
<path d="M35587 22575 c-4 -25 15 -45 41 -45 14 0 21 47 9 59 -20 20 -44 12
-50 -14z"/>
<path d="M48291 22584 c0 -11 3 -14 6 -6 3 7 2 16 -1 19 -3 4 -6 -2 -5 -13z"/>
<path d="M35512 22478 c-16 -16 -15 -38 2 -38 8 0 16 -7 20 -15 14 -37 40 -1
30 41 -7 26 -32 32 -52 12z"/>
<path d="M48176 22483 c-3 -3 -6 -10 -6 -14 0 -10 50 -5 53 6 3 10 -38 17 -47
8z"/>
<path d="M12337 22433 c-3 -2 -116 -6 -253 -8 -137 -2 -350 -7 -474 -10 -124
-3 -353 -7 -510 -10 -648 -11 -714 -15 -804 -41 -27 -8 -64 -14 -82 -14 -42 0
-51 -13 -64 -93 -11 -68 -6 -117 12 -117 5 0 16 -7 25 -15 14 -14 14 -18 -2
-35 -10 -11 -22 -17 -26 -14 -12 7 -11 -20 2 -92 11 -62 31 -94 58 -94 9 0 27
-7 40 -17 22 -15 74 -16 620 -9 328 4 610 9 626 11 17 2 170 6 340 10 393 8
622 20 638 34 7 5 23 8 35 4 26 -6 59 19 73 55 5 13 13 21 17 18 16 -10 30 10
32 44 3 54 1 80 -7 79 -20 -3 -46 2 -40 8 4 3 -3 11 -16 17 -25 13 -30 50 -7
53 83 11 90 14 80 33 -5 10 -10 30 -10 43 0 14 -7 27 -15 31 -8 3 -15 15 -15
26 0 11 -7 23 -15 26 -8 4 -15 14 -15 24 0 11 -4 22 -10 25 -5 3 -10 2 -10 -4
0 -6 -11 1 -25 15 -18 18 -31 23 -43 19 -17 -8 -26 -8 -109 -1 -23 2 -44 1
-46 -1z m-726 -283 c21 -12 25 -36 7 -42 -16 -6 -38 16 -38 36 0 19 5 20 31 6z"/>
<path d="M35430 22357 c0 -21 27 -57 42 -57 12 0 17 44 7 62 -15 27 -49 24
-49 -5z"/>
<path d="M35075 21867 c-23 -18 -41 -43 -43 -57 -2 -14 -9 -31 -14 -37 -17
-22 7 -15 27 7 10 11 26 20 35 20 27 0 42 25 38 64 l-3 36 -40 -33z"/>
<path d="M34898 21616 c-16 -24 -28 -49 -28 -55 0 -7 -9 -24 -20 -38 -23 -30
-26 -63 -6 -63 9 0 17 15 21 39 4 22 22 65 41 97 37 61 38 64 27 64 -5 0 -20
-20 -35 -44z"/>
<path d="M34672 21330 c-54 -60 -61 -72 -52 -90 14 -26 56 -26 70 -1 5 11 10
31 10 46 0 14 11 43 25 63 14 20 25 40 25 44 0 19 -20 3 -78 -62z"/>
<path d="M34551 21167 c-16 -16 -13 -38 7 -53 9 -7 20 -14 24 -14 12 0 28 38
22 53 -7 20 -39 28 -53 14z"/>
<path d="M34256 20726 c-14 -19 -26 -37 -26 -40 0 -2 20 7 45 21 25 13 45 28
45 33 0 6 -23 20 -35 20 -1 0 -14 -15 -29 -34z"/>
<path d="M34143 20600 c-38 -23 -40 -31 -15 -53 27 -24 52 -22 52 6 0 12 3 32
6 45 8 27 -2 28 -43 2z"/>
<path d="M34030 20421 c-10 -20 -4 -51 10 -51 10 0 20 26 20 51 0 25 -16 24
-30 0z"/>
<path d="M28495 20320 c-3 -11 -15 -25 -26 -30 -10 -6 -19 -15 -19 -20 0 -12
69 -83 104 -105 25 -16 28 -16 45 -1 9 9 27 16 39 16 12 0 22 6 22 13 0 15
-134 147 -149 147 -5 0 -13 -9 -16 -20z"/>
<path d="M33923 20303 c-19 -7 -16 -27 7 -48 16 -15 22 -15 35 -5 19 16 19 25
-1 44 -16 17 -21 18 -41 9z"/>
<path d="M52837 20053 c-4 -3 -7 -21 -7 -38 0 -43 -20 -58 -118 -89 -105 -33
-114 -33 -155 4 -19 17 -37 30 -39 30 -2 0 -4 -16 -4 -36 0 -51 -31 -74 -98
-74 -42 0 -57 -5 -74 -23 l-22 -23 37 -62 c20 -33 42 -63 49 -66 12 -5 32 0
131 35 28 10 60 15 71 12 12 -3 48 8 84 26 63 30 178 65 251 76 43 7 52 21 43
70 -5 25 -26 55 -70 100 -65 67 -68 69 -79 58z"/>
<path d="M53237 19959 c5 -18 3 -20 -14 -15 -12 4 -25 1 -33 -9 -7 -8 -21 -15
-32 -15 -23 0 -19 -24 5 -28 10 -2 17 3 17 12 0 9 5 17 10 17 6 1 16 2 23 3 6
1 18 -2 25 -8 9 -7 16 -6 22 4 7 11 11 10 25 -3 23 -23 45 -21 45 4 0 41 -18
59 -59 59 -35 0 -39 -2 -34 -21z"/>
<path d="M38130 19863 c-98 -12 -194 -52 -277 -115 -75 -57 -233 -258 -233
-297 0 -6 -4 -11 -9 -11 -14 0 -68 -151 -80 -225 -36 -219 54 -496 216 -659
110 -112 233 -188 428 -265 44 -18 89 -36 100 -41 38 -18 300 -79 551 -128 56
-12 119 -25 140 -31 22 -6 62 -12 89 -15 28 -3 97 -12 155 -21 58 -9 128 -19
155 -22 28 -2 108 -13 180 -23 71 -10 135 -15 142 -13 22 9 11 64 -29 138 -8
17 -19 41 -23 55 -8 28 -32 86 -46 112 -5 10 -9 22 -9 27 0 6 -13 38 -29 73
-16 35 -34 79 -41 98 -7 19 -26 64 -43 100 -16 36 -33 74 -37 85 -5 11 -26 58
-48 105 -21 47 -47 103 -57 125 -10 22 -33 74 -52 115 -19 41 -44 95 -55 120
-84 189 -217 415 -289 491 -81 86 -232 162 -414 209 -49 13 -317 22 -385 13z"/>
<path d="M52930 19706 c-19 -13 -42 -23 -50 -24 -8 0 -40 -10 -70 -21 -30 -11
-72 -20 -93 -21 -36 0 -122 -33 -133 -51 -3 -5 -16 -9 -30 -9 -30 0 -96 -26
-106 -43 -10 -15 -10 -67 0 -68 4 0 16 -2 26 -4 11 -2 39 5 64 16 61 28 102
22 127 -18 11 -18 23 -32 27 -33 3 0 11 22 18 49 14 59 30 75 90 91 25 7 50
16 55 20 6 4 28 10 50 14 47 7 70 -7 80 -47 15 -59 43 -17 52 78 7 73 -4 95
-46 94 -14 0 -42 -10 -61 -23z"/>
<path d="M47500 18305 c0 -8 4 -15 9 -15 5 0 11 7 15 15 3 9 0 15 -9 15 -8 0
-15 -7 -15 -15z"/>
<path d="M47270 18254 c0 -17 22 -14 28 4 2 7 -3 12 -12 12 -9 0 -16 -7 -16
-16z"/>
<path d="M20240 13511 c0 -11 -5 -21 -11 -21 -6 0 -8 -7 -5 -17 5 -11 0 -23
-15 -34 l-21 -16 42 -61 c51 -76 57 -80 70 -48 8 21 16 26 44 26 46 0 51 12
19 41 -14 13 -40 47 -58 74 -18 28 -40 57 -49 64 -14 12 -16 11 -16 -8z"/>
<path d="M43570 13460 c-12 -12 -33 -20 -52 -19 -28 0 -30 2 -13 9 30 13 -1
11 -65 -4 -38 -8 -49 -14 -36 -19 9 -4 14 -12 11 -17 -5 -8 -11 -7 -21 1 -21
17 -114 20 -139 4 -19 -11 -52 -21 -160 -45 -48 -11 -142 -44 -152 -53 -3 -4
-13 -7 -21 -7 -18 0 -63 -35 -55 -44 3 -3 2 -6 -3 -6 -6 0 -15 5 -20 10 -7 7
-18 5 -35 -8 -13 -11 -37 -22 -54 -26 -16 -4 -44 -18 -61 -31 -17 -13 -48 -28
-70 -34 -41 -11 -119 -81 -90 -81 8 0 18 5 21 10 9 14 25 12 25 -3 0 -14 -35
-47 -50 -47 -6 0 -10 -7 -10 -15 0 -8 -6 -15 -12 -15 -15 0 -43 -29 -77 -77
-12 -18 -29 -33 -37 -33 -8 0 -15 -7 -15 -15 -3 -31 -4 -35 -14 -36 -19 -1
-35 -22 -30 -38 3 -10 -3 -23 -15 -31 -11 -8 -20 -23 -20 -33 0 -9 -7 -20 -15
-23 -10 -4 -13 -13 -9 -26 3 -11 2 -18 -2 -15 -20 11 -54 -12 -52 -35 2 -20
-32 -82 -54 -98 -4 -3 -3 -12 2 -20 6 -8 10 -25 10 -37 0 -39 26 -27 59 27 11
19 21 45 21 58 0 13 6 22 15 22 8 0 15 -7 15 -15 0 -8 3 -15 7 -15 9 0 63 62
63 72 0 12 38 47 44 40 3 -3 6 0 6 6 0 7 4 12 10 12 11 0 1 -32 -14 -42 -8 -6
-8 -8 0 -8 6 0 25 18 43 40 18 22 36 38 41 35 9 -5 56 24 98 60 12 11 32 22
45 25 12 3 26 16 32 28 11 25 61 47 71 31 4 -7 15 -3 28 9 11 11 31 25 44 32
15 7 21 17 18 26 -5 12 -1 14 15 9 14 -5 19 -3 15 3 -4 6 2 8 14 5 26 -7 51
15 48 41 -2 15 6 25 32 37 36 18 60 15 41 -4 -15 -15 -14 -27 2 -27 8 0 30 16
50 35 27 26 45 35 71 35 22 0 45 9 63 24 23 19 33 22 48 14 15 -9 22 -7 36 11
9 11 24 21 32 21 8 0 22 11 31 24 17 27 46 31 84 13 20 -10 26 -7 48 21 14 18
31 32 39 32 7 0 15 7 19 15 4 12 11 13 31 5 28 -11 49 -5 40 11 -4 5 2 9 13 9
28 0 82 -20 82 -31 0 -5 19 4 42 21 22 16 52 30 65 30 26 0 32 25 7 34 -8 3
-27 3 -41 0 -19 -5 -24 -3 -21 7 3 8 -2 20 -9 28 -8 7 -12 20 -9 27 3 8 0 25
-6 39 -9 19 -16 23 -35 19 -13 -4 -29 -2 -36 3 -27 21 -48 22 -67 3z m94 -35
c3 -8 1 -15 -3 -15 -5 0 -11 7 -15 15 -3 8 -1 15 3 15 5 0 11 -7 15 -15z
m-194 -9 c0 -2 -7 -6 -15 -10 -8 -3 -15 -1 -15 4 0 6 7 10 15 10 8 0 15 -2 15
-4z m-105 -28 c6 -6 0 -8 -19 -6 -16 2 -31 9 -34 17 -3 10 2 11 19 6 13 -4 29
-12 34 -17z m250 12 c3 -5 1 -10 -4 -10 -6 0 -11 5 -11 10 0 6 2 10 4 10 3 0
8 -4 11 -10z m-365 -259 c0 -6 -4 -13 -10 -16 -5 -3 -10 1 -10 9 0 9 5 16 10
16 6 0 10 -4 10 -9z m-643 -16 c0 -8 -4 -12 -9 -9 -5 3 -6 10 -3 15 9 13 12
11 12 -6z"/>
<path d="M43773 13438 c2 -37 23 -49 29 -16 6 31 0 48 -17 48 -9 0 -13 -11
-12 -32z"/>
<path d="M43905 13391 c-3 -5 -1 -12 5 -16 5 -3 10 1 10 9 0 18 -6 21 -15 7z"/>
<path d="M44075 13360 c-3 -5 1 -10 9 -10 8 0 18 5 21 10 3 6 -1 10 -9 10 -8
0 -18 -4 -21 -10z"/>
<path d="M43935 13350 c-3 -5 -1 -10 4 -10 6 0 11 5 11 10 0 6 -2 10 -4 10 -3
0 -8 -4 -11 -10z"/>
<path d="M42460 13075 c-8 -9 -8 -15 -2 -15 12 0 26 19 19 26 -2 2 -10 -2 -17
-11z"/>
<path d="M42495 13070 c3 -5 8 -10 11 -10 2 0 4 5 4 10 0 6 -5 10 -11 10 -5 0
-7 -4 -4 -10z"/>
<path d="M21315 12792 c-28 -9 -91 -46 -140 -80 -125 -88 -389 -271 -520 -360
-60 -42 -162 -112 -225 -156 -63 -45 -148 -103 -188 -131 -40 -27 -132 -91
-205 -142 -73 -50 -181 -126 -242 -167 -60 -41 -141 -96 -180 -123 -38 -26
-128 -88 -200 -137 -196 -135 -225 -158 -244 -196 -33 -65 -34 -88 -5 -169 16
-42 32 -78 36 -79 5 -2 6 -7 3 -12 -7 -11 51 -81 60 -72 5 4 5 2 2 -4 -4 -6
14 -37 38 -69 25 -31 45 -62 45 -67 0 -5 4 -7 9 -4 5 3 12 -1 15 -10 4 -10 2
-13 -6 -8 -6 4 2 -9 18 -29 16 -20 32 -37 37 -37 4 0 7 -7 7 -15 0 -9 7 -18
15 -21 8 -4 13 -10 10 -14 -3 -5 12 -26 34 -48 22 -21 47 -56 55 -77 9 -21 19
-35 22 -32 10 10 32 -17 26 -32 -3 -8 -1 -12 5 -8 9 6 53 -44 53 -60 0 -4 -5
-1 -10 7 -5 8 -10 10 -10 4 0 -16 35 -45 44 -37 4 4 4 -1 0 -10 -4 -12 -2 -17
7 -15 8 2 13 -4 13 -14 -1 -10 2 -15 7 -13 4 3 13 -3 18 -14 6 -11 17 -25 24
-33 7 -7 23 -29 37 -48 19 -28 174 -240 208 -285 4 -5 41 -57 82 -114 41 -57
92 -127 112 -155 21 -28 46 -62 55 -76 9 -14 49 -68 88 -120 40 -52 114 -153
165 -225 51 -71 105 -146 119 -165 38 -50 283 -393 341 -475 158 -226 240
-332 270 -350 22 -12 53 -19 85 -19 45 0 58 5 119 49 37 28 91 65 119 84 29
18 54 37 57 40 3 4 52 38 110 75 58 38 112 74 121 80 9 6 52 36 95 66 43 30
119 82 170 115 50 33 147 98 215 145 68 46 156 106 194 132 143 97 408 282
565 394 58 41 139 97 180 126 200 137 206 142 244 235 38 90 44 142 22 184 -7
14 -123 179 -258 365 -543 753 -725 1005 -813 1124 -88 120 -157 215 -220 304
-16 24 -97 136 -180 251 -82 114 -163 226 -179 249 -16 22 -98 137 -183 254
-122 168 -163 216 -194 232 -57 30 -115 34 -174 12z m-1827 -2137 c-3 -3 -9 2
-12 12 -6 14 -5 15 5 6 7 -7 10 -15 7 -18z"/>
<path d="M7918 11283 c7 -3 16 -2 19 1 4 3 -2 6 -13 5 -11 0 -14 -3 -6 -6z"/>
<path d="M7847 11253 c-24 -23 9 -31 39 -8 18 14 18 14 -7 15 -14 0 -29 -3
-32 -7z"/>
<path d="M7745 11187 c-17 -13 -17 -14 2 -19 13 -3 24 1 32 13 14 23 -5 26
-34 6z"/>
<path d="M7630 11137 c-14 -6 -27 -14 -30 -18 -3 -4 -20 -16 -38 -27 -19 -11
-29 -23 -23 -26 12 -8 50 10 71 34 8 9 27 20 43 24 15 3 27 11 27 16 0 13 -18
12 -50 -3z"/>
<path d="M7491 11049 c-13 -11 -21 -22 -18 -25 8 -8 47 19 47 33 0 16 0 16
-29 -8z"/>
<path d="M7402 11001 c-10 -6 -7 -10 12 -13 18 -4 26 -1 26 8 0 16 -18 18 -38
5z"/>
<path d="M7320 10957 c-30 -18 -80 -47 -110 -63 -30 -17 -91 -50 -134 -74 -63
-35 -75 -45 -60 -50 10 -4 21 -4 24 0 3 4 23 13 45 20 22 7 47 16 55 21 8 5
26 15 40 21 14 7 31 18 38 25 7 7 19 13 27 13 7 0 16 7 19 16 3 8 11 12 17 8
8 -4 9 1 4 16 -5 15 -4 20 4 16 19 -12 81 6 92 26 20 37 -5 38 -61 5z"/>
<path d="M41120 10200 c0 -5 5 -10 10 -10 6 0 10 5 10 10 0 6 -4 10 -10 10 -5
0 -10 -4 -10 -10z"/>
<path d="M41128 10145 c3 -16 0 -25 -8 -25 -10 0 -10 -3 0 -15 21 -25 30 -17
30 25 0 27 -4 40 -14 40 -9 0 -12 -8 -8 -25z"/>
<path d="M41163 10073 c-18 -7 -16 -33 2 -33 8 0 15 9 15 20 0 11 -1 20 -2 19
-2 0 -9 -3 -15 -6z"/>
<path d="M41144 9988 c3 -13 6 -33 6 -45 0 -21 1 -21 30 -7 17 9 30 18 30 20
0 3 -4 2 -10 -1 -5 -3 -10 -1 -10 4 0 6 -7 11 -16 11 -11 0 -14 6 -9 20 5 15
2 20 -10 20 -13 0 -16 -6 -11 -22z"/>
<path d="M41190 9885 c0 -9 5 -15 11 -13 6 2 11 8 11 13 0 5 -5 11 -11 13 -6
2 -11 -4 -11 -13z"/>
<path d="M41160 9844 c0 -7 8 -10 20 -7 11 3 20 8 20 12 0 4 -9 7 -20 7 -11 0
-20 -6 -20 -12z"/>
<path d="M41180 9805 c-11 -14 -11 -16 1 -13 9 2 15 -7 17 -25 2 -15 8 -25 13
-22 9 6 2 54 -11 68 -4 4 -13 1 -20 -8z"/>
<path d="M41250 9800 c0 -5 5 -10 11 -10 5 0 7 5 4 10 -3 6 -8 10 -11 10 -2 0
-4 -4 -4 -10z"/>
<path d="M41236 9761 c-3 -5 1 -11 9 -15 15 -6 29 7 18 18 -9 9 -21 8 -27 -3z"/>
<path d="M41204 9679 c-3 -6 0 -15 7 -20 13 -7 28 5 29 24 0 11 -28 8 -36 -4z"/>
<path d="M41248 9662 c-27 -29 -41 -69 -28 -77 5 -3 11 4 15 14 3 11 12 18 19
15 10 -4 15 6 18 33 3 21 4 39 3 40 -1 2 -13 -10 -27 -25z"/>
<path d="M41306 9659 c-10 -10 -16 -23 -14 -30 2 -7 12 0 22 16 21 32 18 39
-8 14z"/>
<path d="M41256 9600 c-13 -4 -16 -9 -8 -14 7 -4 19 -3 28 2 21 12 5 22 -20
12z"/>
<path d="M41317 9576 c-3 -8 -2 -18 3 -21 13 -8 24 15 12 27 -6 6 -11 4 -15
-6z"/>
<path d="M41250 9558 c0 -4 5 -8 10 -8 6 0 9 -15 9 -32 -1 -18 -3 -25 -6 -15
-2 9 -9 17 -14 17 -11 0 -11 0 2 -39 18 -50 34 -14 30 65 -1 19 -31 31 -31 12z"/>
<path d="M41300 9480 c0 -5 5 -10 10 -10 6 0 10 5 10 10 0 6 -4 10 -10 10 -5
0 -10 -4 -10 -10z"/>
<path d="M41340 9426 c0 -9 -10 -13 -31 -12 -38 3 -44 -6 -19 -29 10 -9 17
-22 16 -28 -2 -7 -1 -9 1 -4 12 21 22 2 19 -38 -1 -25 1 -45 6 -45 4 0 8 -11
8 -25 0 -14 4 -25 8 -25 5 0 14 -18 21 -40 6 -22 16 -41 21 -41 31 -5 35 -2
35 29 0 23 -5 32 -17 32 -9 0 -17 8 -17 18 0 19 -20 99 -30 122 -4 8 -4 32 -1
52 4 21 5 40 2 43 -10 10 -22 5 -22 -9z"/>
<path d="M41408 9262 c-4 -12 -2 -25 4 -28 16 -10 22 4 11 28 l-10 22 -5 -22z"/>
<path d="M41433 9123 c-26 -17 -31 -43 -9 -43 8 0 22 -3 31 -6 13 -5 15 -2 9
20 -4 16 -2 26 5 26 6 0 11 5 11 10 0 14 -22 11 -47 -7z"/>
<path d="M41480 9080 c0 -5 5 -10 10 -10 6 0 10 5 10 10 0 6 -4 10 -10 10 -5
0 -10 -4 -10 -10z"/>
<path d="M41442 9052 c-13 -9 -6 -42 9 -42 5 0 9 -8 9 -19 0 -10 9 -30 20 -44
11 -14 20 -30 20 -36 0 -6 7 -11 15 -11 8 0 15 5 15 10 0 6 -4 10 -10 10 -5 0
-10 9 -10 20 0 11 -7 20 -15 20 -9 0 -12 6 -9 15 4 8 1 22 -5 29 -7 8 -11 22
-9 32 3 20 -11 27 -30 16z"/>
<path d="M41541 8854 c0 -11 3 -14 6 -6 3 7 2 16 -1 19 -3 4 -6 -2 -5 -13z"/>
<path d="M41695 8621 c-3 -5 -1 -12 5 -16 5 -3 10 1 10 9 0 18 -6 21 -15 7z"/>
<path d="M13095 7549 c-16 -5 -41 -11 -54 -14 -97 -18 -227 -74 -256 -111 -5
-7 -25 -30 -44 -52 -19 -22 -50 -78 -70 -124 -35 -81 -36 -85 -35 -208 1 -157
20 -225 98 -354 51 -85 100 -135 256 -259 54 -43 184 -127 197 -127 3 0 29
-14 57 -32 192 -118 654 -332 765 -354 l33 -7 -7 54 c-4 30 -13 83 -22 119 -8
36 -23 112 -33 170 -22 123 -51 261 -80 380 -11 47 -29 126 -40 175 -27 129
-81 280 -112 320 -5 6 -30 42 -56 82 -88 132 -249 288 -340 329 -43 20 -68 24
-140 23 -48 0 -100 -5 -117 -10z"/>
<path d="M46907 7311 c-10 -18 -13 -32 -7 -41 14 -21 12 -30 -5 -30 -8 0 -15
5 -15 10 0 20 -20 9 -26 -15 -3 -13 -14 -27 -23 -30 -15 -4 -39 -43 -52 -80
-1 -5 -6 -14 -11 -20 -4 -5 -24 -30 -44 -54 -22 -28 -34 -51 -30 -64 3 -13 0
-17 -10 -13 -8 3 -14 -1 -14 -9 0 -8 -9 -19 -20 -25 -11 -6 -20 -17 -20 -24 0
-7 -11 -19 -25 -26 -14 -7 -25 -17 -25 -22 0 -4 -6 -8 -14 -8 -11 0 -12 -8 -6
-37 7 -32 7 -35 -4 -21 -12 16 -15 15 -44 -12 -24 -21 -32 -38 -32 -62 l0 -33
19 35 c18 35 51 53 51 29 0 -7 -10 -28 -22 -46 -19 -28 -28 -33 -49 -29 -18 3
-32 -1 -43 -13 -18 -20 -22 -41 -4 -23 17 17 28 15 28 -6 0 -26 -11 -34 -26
-21 -11 9 -16 5 -25 -17 -21 -54 -19 -71 8 -66 12 2 23 11 23 18 0 8 4 14 9
14 5 0 15 2 23 5 10 4 13 -7 13 -45 0 -41 -3 -50 -17 -50 -20 0 -23 -11 -7
-27 8 -8 7 -13 -1 -18 -7 -4 -16 -1 -21 6 -9 15 -11 14 -26 -21 -8 -20 -8 -30
3 -45 13 -17 14 -17 14 -1 0 22 21 44 37 39 15 -5 -4 -53 -21 -53 -6 -1 -1 -9
11 -19 19 -16 21 -21 8 -31 -8 -7 -14 -15 -13 -18 6 -23 -17 -116 -33 -136
-10 -13 -19 -27 -19 -31 0 -4 -11 -21 -25 -37 -17 -20 -23 -37 -20 -49 4 -12
1 -21 -9 -25 -26 -10 -18 -34 14 -41 l30 -6 -19 -33 -20 -34 22 -1 c12 -1 28
-1 36 0 7 2 10 -2 6 -8 -3 -6 -17 -11 -31 -11 -22 0 -23 -3 -14 -20 9 -16 8
-20 -5 -20 -8 0 -15 -7 -15 -15 0 -9 6 -12 15 -9 8 4 15 2 15 -4 0 -6 -6 -12
-12 -15 -17 -5 0 -26 40 -50 26 -15 32 -15 44 -3 29 32 61 73 81 106 13 19 32
39 44 45 17 7 22 17 21 42 -1 34 23 80 48 90 8 3 14 16 14 28 0 13 5 27 10 30
16 10 60 82 60 98 0 7 13 33 28 58 16 24 27 49 25 55 -2 6 3 17 12 24 8 7 15
19 15 26 0 8 4 14 10 14 14 0 28 30 35 78 4 27 2 42 -5 42 -13 0 -13 43 0 56
6 6 12 39 15 74 2 34 7 65 10 68 3 3 5 0 5 -6 0 -7 5 -12 11 -12 7 0 9 10 5
26 -6 21 -4 25 8 21 9 -4 16 -2 16 3 0 6 -8 10 -17 10 -17 1 -17 1 -1 10 17
11 14 49 -6 62 -8 5 -7 8 2 8 6 0 21 9 33 21 15 15 18 24 9 34 -8 9 -8 15 0
20 5 3 10 15 10 26 0 13 4 18 12 13 8 -5 9 -2 5 10 -16 41 -18 64 -6 71 8 5
10 4 5 -3 -4 -7 -3 -12 2 -12 9 0 20 51 23 100 2 33 -7 45 -41 56 -28 9 -34
16 -32 33 1 13 9 29 17 37 17 18 19 33 6 53 -6 8 -6 22 -1 31 5 9 3 22 -4 32
-11 15 -14 14 -29 -11z m-487 -1285 c0 -3 -4 -8 -10 -11 -5 -3 -10 -1 -10 4 0
6 5 11 10 11 6 0 10 -2 10 -4z"/>
<path d="M22800 7006 c0 -2 8 -10 18 -17 15 -13 16 -12 3 4 -13 16 -21 21 -21
13z"/>
<path d="M22894 6911 c4 -6 16 -16 28 -22 15 -8 18 -8 14 0 -4 6 -16 16 -28
22 -15 8 -18 8 -14 0z"/>
<path d="M51616 6751 c-8 -13 19 -21 69 -21 60 0 65 16 8 24 -61 8 -71 8 -77
-3z"/>
<path d="M45178 6556 c-37 -8 -58 -9 -58 -2 0 5 -10 0 -23 -12 -13 -12 -33
-22 -45 -22 -12 0 -22 -4 -22 -9 0 -6 -18 -10 -39 -9 -22 0 -45 -5 -53 -11 -7
-7 -22 -18 -32 -25 -25 -17 -17 -28 49 -72 l55 -36 -23 -18 c-19 -16 -24 -17
-38 -4 -22 20 -35 18 -58 -12 l-21 -26 23 -17 c21 -16 176 -93 307 -153 36
-17 72 -34 80 -39 25 -15 81 -39 185 -81 55 -22 116 -48 136 -59 47 -24 103
-25 127 -1 11 11 33 39 50 64 17 25 49 60 71 77 41 32 95 116 88 135 -5 13 18
37 27 29 16 -16 4 17 -13 36 -11 13 -17 28 -15 36 5 13 -44 55 -64 55 -6 0
-17 8 -24 18 -17 23 -53 42 -78 42 -11 0 -34 9 -52 20 -18 11 -45 20 -61 20
-15 0 -35 4 -45 9 -22 13 -118 39 -162 45 -35 5 -75 13 -75 16 0 1 -18 3 -40
5 -22 2 -53 6 -70 9 -16 2 -56 -1 -87 -8z m-7 -263 c21 6 22 5 13 -17 -8 -20
-18 -20 -38 -1 -9 9 -12 23 -8 33 6 16 7 16 10 -1 3 -13 10 -17 23 -14z"/>
<path d="M44790 6341 c0 -6 4 -13 10 -16 6 -3 7 1 4 9 -7 18 -14 21 -14 7z"/>
<path d="M47150 5947 c-32 -15 -62 -48 -56 -62 2 -7 -9 -24 -25 -39 -37 -35
-37 -59 1 -88 17 -13 46 -35 64 -50 19 -16 38 -28 43 -28 6 0 22 -12 36 -26
17 -16 33 -24 43 -20 9 3 29 -5 48 -19 18 -14 40 -25 48 -25 16 0 44 -29 72
-73 13 -21 15 -32 6 -42 -8 -10 -8 -19 2 -34 7 -12 16 -21 19 -21 4 0 9 -9 12
-20 6 -25 45 -27 54 -3 4 10 -2 23 -16 34 -18 15 -20 22 -11 38 19 37 59 36
153 -4 9 -4 17 -3 17 1 -1 11 -68 84 -77 84 -12 0 -75 74 -94 112 -10 20 -23
39 -29 43 -5 3 -10 15 -10 26 0 10 -4 19 -10 19 -5 0 -7 6 -4 14 8 20 -22 125
-42 147 -13 15 -27 18 -63 14 -25 -2 -51 1 -57 6 -7 6 -26 11 -43 11 -17 1
-31 5 -31 10 0 11 -20 9 -50 -5z"/>
<path d="M46308 5918 c7 -7 16 -7 28 0 14 8 13 10 -10 10 -18 0 -24 -4 -18
-10z"/>
<path d="M46300 5866 c0 -22 17 -28 24 -10 9 22 8 24 -9 24 -8 0 -15 -6 -15
-14z"/>
<path d="M45165 5620 c-8 -13 -1 -24 14 -19 6 3 7 10 2 18 -6 10 -10 10 -16 1z"/>
<path d="M45013 5603 c-18 -2 -33 -10 -33 -17 0 -12 -40 -36 -60 -36 -6 0 -19
9 -31 21 l-20 20 -6 -20 c-6 -24 -14 -26 -31 -9 -6 6 -37 12 -67 13 -50 1 -55
-1 -55 -22 0 -12 5 -25 10 -28 6 -4 8 -10 5 -15 -3 -5 -1 -20 4 -33 6 -14 15
-63 21 -109 14 -101 0 -228 -37 -328 -27 -74 -106 -195 -188 -288 -30 -35 -62
-76 -70 -91 -7 -15 -29 -45 -47 -66 -58 -67 -129 -149 -153 -175 -12 -14 -55
-66 -96 -115 -120 -147 -290 -323 -373 -385 -45 -34 -69 -62 -95 -111 -86
-158 -211 -354 -290 -454 -22 -27 -40 -56 -40 -62 -1 -7 -4 -13 -8 -13 -5 0
-19 -18 -33 -40 -13 -22 -28 -40 -32 -40 -4 0 -8 -4 -8 -9 0 -9 -93 -150 -131
-200 -41 -52 -106 -158 -141 -229 -20 -39 -45 -84 -55 -100 -10 -15 -22 -34
-28 -43 -26 -41 -110 -147 -141 -177 -19 -18 -34 -41 -34 -50 0 -22 -48 -169
-65 -202 -40 -74 -104 -210 -115 -245 -7 -22 -16 -44 -20 -50 -4 -5 -16 -35
-28 -65 -21 -57 -133 -332 -157 -385 -7 -16 -22 -57 -33 -90 -19 -59 -50 -140
-77 -200 -57 -132 -122 -334 -184 -572 -27 -103 -57 -208 -66 -232 -11 -32
-17 -88 -20 -198 l-3 -153 179 0 c151 0 181 2 185 15 4 8 1 21 -5 29 -8 10 -6
17 9 31 20 18 20 18 0 32 -12 8 -17 19 -13 26 4 7 8 30 8 51 1 22 7 42 13 44
7 2 9 8 6 13 -3 6 2 21 11 35 9 13 13 29 10 33 -3 5 1 11 7 14 10 3 10 10 -1
31 -11 20 -12 29 -3 38 7 7 12 22 12 34 0 11 12 34 26 49 15 16 27 41 28 57 0
15 5 28 9 28 5 0 6 8 2 17 -15 38 -15 94 0 99 21 8 19 24 -2 24 -27 0 -28 90
-2 108 21 15 25 58 7 65 -7 3 -3 6 9 6 12 1 24 7 27 14 3 8 8 7 16 -5 13 -22
40 -24 40 -3 0 8 -4 15 -10 15 -5 0 -10 12 -10 26 0 17 6 28 20 31 11 3 20 8
20 12 0 10 -19 36 -22 31 -2 -3 -12 -18 -21 -33 -10 -15 -21 -26 -25 -23 -16
10 -12 66 6 84 13 13 16 26 11 52 -4 19 -6 37 -3 41 2 4 -3 12 -11 19 -22 18
-18 35 10 50 29 15 31 23 10 40 -22 18 -18 48 6 55 14 5 19 13 16 25 -3 10 4
28 14 39 18 19 17 51 -2 51 -16 0 -9 30 12 51 13 13 18 27 14 40 -5 15 0 25
17 37 12 9 26 16 30 15 3 -1 4 15 1 36 -5 37 -4 38 36 54 49 20 118 22 124 4
2 -6 2 -2 0 11 -2 12 1 22 5 22 5 0 7 11 5 24 -3 13 -11 23 -20 22 -9 0 -18 5
-20 12 -3 6 1 12 9 12 7 0 22 11 32 25 10 14 25 25 32 25 7 0 18 8 23 18 10
16 10 15 11 -3 1 -15 3 -16 7 -5 4 8 12 21 20 28 15 16 18 46 3 37 -6 -4 -10
7 -10 24 0 28 3 31 31 31 18 0 28 4 24 10 -4 6 -11 7 -17 4 -6 -4 -9 -1 -6 7
3 8 12 13 20 13 10 -1 14 5 11 16 -4 14 1 17 24 16 24 -1 28 2 25 23 -3 18 0
22 12 18 11 -5 16 -1 16 12 0 33 -24 29 -52 -7 l-28 -35 0 27 c0 28 20 56 39
56 6 0 8 7 4 16 -3 9 -12 13 -21 9 -8 -3 -19 0 -23 6 -10 18 38 41 59 30 11
-6 21 -4 30 5 15 16 14 16 -53 14 -27 -1 -53 -7 -57 -13 -4 -6 -10 -8 -15 -4
-9 10 16 27 40 27 14 0 18 6 15 24 -1 13 5 33 16 45 10 11 19 33 20 48 1 15 7
38 14 51 7 12 10 32 6 44 -4 14 -3 18 6 13 6 -4 20 2 31 14 11 12 26 21 33 21
19 0 77 58 66 65 -6 4 -10 1 -10 -4 0 -6 -7 -11 -15 -11 -26 0 2 40 38 55 18
7 42 27 55 44 13 18 28 29 34 25 7 -5 9 2 6 20 -3 15 -3 24 0 22 8 -9 42 14
42 29 0 16 34 38 44 28 9 -10 7 6 -5 30 -9 20 -9 20 4 5 18 -23 27 -23 27 1 0
10 6 24 14 31 8 6 16 24 18 38 2 15 8 26 15 25 6 -2 15 7 18 18 5 13 12 18 25
14 13 -4 22 3 34 29 9 19 21 38 26 41 6 3 10 17 10 30 0 13 7 30 15 39 8 8 15
19 15 25 0 6 5 11 11 11 8 0 8 5 -1 15 -18 22 22 55 67 55 19 0 32 4 29 9 -3
5 0 11 8 14 17 7 26 65 12 71 -7 3 -7 5 1 5 6 1 15 -3 18 -9 3 -5 14 -10 23
-10 13 0 14 2 4 9 -19 12 -10 47 11 43 9 -2 17 1 17 6 0 5 13 24 29 42 17 20
27 41 25 54 -3 12 -1 15 2 8 7 -15 34 3 34 23 0 7 11 24 25 39 14 15 25 39 25
55 0 15 9 36 19 45 11 10 18 23 15 30 -3 7 7 18 21 24 14 6 25 16 25 22 0 5
18 10 40 10 22 0 40 3 40 8 0 18 86 6 117 -15 17 -13 36 -23 41 -23 6 0 25 -8
42 -17 l31 -18 30 35 c39 46 48 79 24 92 -13 8 -14 12 -5 18 17 11 5 41 -20
47 -24 6 -27 23 -4 23 13 0 13 2 2 13 -7 8 -20 16 -27 18 -11 4 -10 9 6 25 32
30 38 61 13 74 -11 6 -20 17 -20 25 0 7 -5 15 -12 17 -7 3 -6 7 5 11 11 4 17
1 17 -8 0 -8 7 -15 16 -15 9 0 12 5 8 12 -5 7 -2 9 8 5 24 -8 29 3 13 26 -12
17 -12 25 0 54 13 30 12 35 -1 40 -12 5 -12 7 3 19 10 7 25 14 34 14 31 0 38
49 12 76 -17 17 -17 17 4 12 13 -4 27 0 34 8 9 11 7 14 -10 14 -12 0 -21 6
-21 16 0 11 6 14 21 9 15 -5 22 -2 26 13 3 12 11 23 19 26 8 3 14 17 14 31 0
26 4 29 53 39 15 4 27 13 27 21 0 8 9 15 20 15 11 0 20 5 20 11 0 6 -8 8 -19
4 -11 -3 -22 -1 -26 5 -4 6 4 10 19 10 16 0 25 5 24 13 -2 6 3 11 10 10 7 -2
12 7 12 22 0 13 8 29 18 34 14 9 11 10 -18 11 -24 0 -31 3 -21 9 7 5 22 6 32
4 10 -3 19 -1 19 5 0 6 -8 13 -17 15 -14 4 -13 5 3 6 12 0 24 8 28 16 3 8 12
15 19 15 8 0 17 14 21 31 4 19 13 33 26 36 14 4 19 11 15 23 -4 13 1 20 15 25
11 3 20 10 20 15 0 4 9 10 20 13 12 3 20 14 20 27 0 13 8 24 20 27 11 3 20 14
20 24 0 21 29 59 45 59 20 1 67 51 61 65 -9 25 5 45 30 45 13 0 24 5 24 11 0
6 10 8 23 5 12 -3 16 -3 9 0 -10 5 -9 10 4 25 9 10 14 19 9 19 -4 0 -2 7 5 15
10 12 16 13 27 3 11 -9 16 -9 23 2 4 7 6 19 3 27 -3 8 3 23 15 33 11 10 26 32
33 49 8 17 21 31 30 31 9 0 22 7 29 15 7 8 20 15 29 15 14 0 14 2 1 10 -12 8
-12 10 -1 10 10 0 12 9 8 35 -4 27 -2 35 9 35 10 0 13 6 9 19 -3 12 0 21 10
25 8 3 15 11 15 17 0 7 8 21 18 32 17 19 16 20 -10 13 -23 -5 -28 -3 -28 12 0
10 5 23 12 30 9 9 8 12 -4 12 -18 0 -30 -47 -18 -70 12 -23 -2 -40 -28 -33
-26 6 -29 18 -6 27 8 3 12 11 9 16 -5 8 -11 8 -20 0 -9 -8 -15 -8 -20 0 -3 5
-17 10 -29 10 -26 0 -42 -36 -25 -56 7 -8 7 -14 -1 -19 -9 -6 -14 1 -11 18 2
12 -23 7 -43 -8 -31 -24 -34 -19 -29 48 3 34 0 81 -5 105 -9 36 -8 42 7 43 9
0 0 6 -19 13 -45 16 -46 40 -2 44 17 2 32 7 32 11 0 9 -38 22 -55 19 -5 -1
-25 -3 -42 -5z m-233 -703 c0 -5 -7 -10 -16 -10 -8 0 -12 5 -9 10 3 6 10 10
16 10 5 0 9 -4 9 -10z m-380 -790 c0 -5 -5 -10 -11 -10 -5 0 -7 5 -4 10 3 6 8
10 11 10 2 0 4 -4 4 -10z m-70 -60 c0 -5 -2 -10 -4 -10 -3 0 -8 5 -11 10 -3 6
-1 10 4 10 6 0 11 -4 11 -10z m-1380 -1970 c-20 -13 -33 -13 -25 0 3 6 14 10
23 10 15 0 15 -2 2 -10z m-465 -850 c3 -5 1 -10 -4 -10 -6 0 -11 5 -11 10 0 6
2 10 4 10 3 0 8 -4 11 -10z m-65 -589 c0 -17 -18 -21 -24 -6 -3 9 0 15 9 15 8
0 15 -4 15 -9z"/>
<path d="M44808 5593 c7 -3 16 -2 19 1 4 3 -2 6 -13 5 -11 0 -14 -3 -6 -6z"/>
<path d="M45190 5550 c0 -5 5 -10 11 -10 5 0 7 5 4 10 -3 6 -8 10 -11 10 -2 0
-4 -4 -4 -10z"/>
<path d="M45132 5538 c-18 -18 -14 -27 8 -21 21 6 26 18 12 27 -5 3 -14 0 -20
-6z"/>
<path d="M49321 5529 c-11 -12 -24 -18 -30 -14 -6 3 -11 0 -11 -8 0 -13 -31
-25 -112 -41 -15 -4 -33 -12 -40 -19 -7 -7 -29 -19 -48 -27 -19 -7 -42 -19
-50 -25 -16 -13 -57 -22 -135 -30 -34 -4 -57 -13 -75 -30 -14 -14 -40 -28 -58
-31 -18 -4 -32 -10 -32 -15 0 -5 -12 -9 -26 -9 -14 0 -23 -4 -19 -9 3 -6 -19
-9 -55 -9 -45 1 -64 -3 -80 -17 -11 -10 -20 -15 -20 -11 0 3 -15 0 -33 -8 -68
-28 -202 -34 -326 -15 -51 8 -67 7 -80 -4 -19 -17 -41 -12 -41 10 0 10 -6 12
-19 8 -11 -3 -22 -1 -26 5 -3 5 -15 10 -26 10 -11 0 -23 8 -26 18 -10 26 -22
30 -59 22 -19 -4 -34 -4 -34 0 0 4 -12 10 -28 13 -15 3 -50 26 -77 51 -40 36
-48 47 -37 57 19 20 14 39 -11 39 -15 0 -28 -9 -34 -23 -10 -21 -17 -23 -60
-21 -51 2 -107 -21 -83 -36 9 -6 10 -12 1 -26 -6 -11 -11 -15 -11 -10 0 12
-40 -40 -40 -53 0 -6 27 -29 60 -51 33 -22 60 -46 60 -51 0 -13 -58 -69 -71
-69 -5 0 -9 -5 -9 -11 0 -7 8 -9 23 -4 29 9 34 8 86 -5 32 -8 46 -8 51 0 7 12
59 -6 72 -25 5 -6 8 -6 8 2 0 8 16 7 58 -4 31 -8 67 -14 78 -14 12 0 27 -6 34
-14 7 -8 19 -15 27 -15 7 0 16 -7 19 -15 3 -8 21 -17 39 -21 19 -3 36 -12 39
-20 3 -8 12 -14 19 -14 8 0 25 -8 38 -19 13 -10 41 -24 62 -30 20 -7 37 -17
37 -22 0 -5 19 -18 43 -28 23 -10 48 -25 55 -34 8 -9 26 -19 42 -22 16 -3 31
-13 34 -21 3 -8 14 -14 25 -14 22 0 25 -3 96 -83 27 -31 54 -57 60 -57 9 0 50
-39 141 -133 18 -17 35 -41 38 -53 4 -12 24 -35 46 -53 22 -18 40 -38 40 -45
0 -8 7 -16 15 -20 8 -3 15 -14 15 -24 0 -11 15 -30 34 -43 19 -13 33 -26 31
-30 -3 -3 7 -11 21 -18 17 -7 24 -17 20 -26 -3 -9 0 -15 10 -15 8 0 19 -11 24
-25 5 -14 15 -22 22 -20 17 7 68 -41 68 -62 0 -19 58 -114 77 -126 7 -4 13
-22 13 -40 0 -25 7 -36 30 -49 23 -13 30 -24 30 -47 0 -19 6 -32 18 -35 18 -6
76 -93 108 -163 10 -24 24 -43 30 -43 14 0 84 -118 84 -142 0 -10 7 -21 15
-24 8 -4 13 -10 10 -14 -3 -5 0 -12 6 -15 6 -4 8 -18 5 -31 -4 -16 -2 -23 6
-22 12 3 15 -3 17 -46 1 -15 9 -26 22 -29 12 -3 18 -10 15 -15 -3 -5 1 -15 9
-22 8 -7 15 -19 15 -26 0 -8 5 -14 10 -14 6 0 10 -9 10 -20 0 -11 7 -20 15
-20 8 0 15 -8 15 -18 0 -10 9 -25 20 -35 11 -9 20 -28 20 -41 0 -14 5 -28 10
-31 6 -4 8 -11 4 -16 -3 -5 6 -23 19 -39 14 -16 28 -44 32 -62 4 -18 11 -37
15 -43 3 -5 17 -38 29 -72 13 -34 29 -67 35 -73 7 -5 13 -29 14 -52 1 -26 9
-50 22 -63 11 -12 20 -28 20 -37 0 -9 7 -18 15 -22 9 -3 15 -18 15 -40 0 -19
5 -38 11 -42 8 -4 7 -9 -2 -15 -11 -7 -11 -11 -2 -17 7 -4 14 -17 16 -27 4
-26 27 -68 42 -77 6 -4 12 -24 13 -44 1 -28 9 -44 34 -66 25 -22 30 -31 19
-37 -11 -7 -10 -14 8 -39 11 -17 21 -42 21 -56 0 -15 7 -29 15 -32 10 -4 13
-13 10 -24 -3 -11 1 -20 10 -24 13 -5 14 -10 4 -28 -10 -19 -8 -25 13 -42 14
-12 28 -28 31 -36 3 -8 6 -10 6 -3 1 7 7 10 15 7 11 -4 12 -12 4 -35 -9 -26
-6 -37 21 -80 17 -28 31 -52 31 -55 0 -9 35 -41 52 -47 23 -8 15 -27 -22 -52
-27 -18 -41 -45 -22 -45 4 0 15 -13 24 -30 17 -30 11 -44 -14 -35 -15 6 -45
-42 -41 -65 3 -11 17 -15 52 -16 43 0 49 3 65 29 9 16 14 32 10 36 -4 3 -9 0
-11 -7 -4 -10 -10 -7 -20 8 -13 18 -13 26 -3 46 17 30 51 33 43 4 -4 -14 -1
-20 7 -18 7 2 23 -17 37 -42 17 -31 30 -44 42 -42 12 2 20 -5 24 -17 3 -11 18
-26 34 -33 15 -7 56 -40 91 -75 34 -35 66 -63 71 -63 5 0 12 7 15 16 6 15 8
15 27 -2 11 -10 27 -19 35 -20 8 -1 27 -11 42 -20 15 -10 42 -19 61 -19 19 -1
36 -6 39 -13 2 -7 11 -12 19 -12 8 0 45 -24 82 -52 36 -29 72 -57 79 -63 8 -5
24 -20 37 -32 12 -13 29 -23 38 -23 8 0 17 -6 20 -12 2 -7 7 -10 11 -6 9 7 -7
41 -32 68 -48 52 -60 69 -75 108 -9 23 -17 51 -17 63 0 11 -6 22 -14 25 -15 6
-70 -18 -98 -43 -22 -19 -48 -10 -48 17 0 11 -6 20 -13 20 -8 0 -22 9 -32 20
-10 11 -23 20 -30 20 -14 0 -95 75 -95 88 0 4 -19 35 -43 67 -65 89 -134 207
-194 327 -29 60 -53 110 -53 113 0 2 -13 33 -29 68 -16 35 -35 83 -42 108 -7
24 -15 46 -19 49 -6 6 -30 68 -35 94 -3 11 -9 24 -15 30 -5 5 -10 21 -10 34 0
13 -11 51 -24 85 -13 34 -36 96 -51 137 -14 41 -34 89 -45 106 -10 17 -21 45
-25 62 -3 17 -15 49 -26 71 -10 22 -19 45 -19 51 0 6 -16 45 -36 88 -19 42
-39 86 -44 97 -12 29 -70 153 -138 295 -33 69 -63 135 -66 147 -4 11 -13 27
-21 33 -8 7 -15 19 -15 28 0 9 -15 47 -34 86 -18 39 -41 89 -51 111 -29 69
-97 198 -126 243 -16 24 -29 47 -29 53 0 5 -4 9 -10 9 -5 0 -23 24 -39 53 -17
28 -35 59 -41 67 -51 72 -120 187 -120 201 0 10 -4 20 -9 23 -4 3 -16 27 -26
53 -10 26 -31 60 -47 76 l-30 27 24 25 c12 14 31 25 41 25 10 0 17 8 17 20 0
12 7 20 18 21 87 4 315 52 337 71 5 4 32 8 61 8 29 0 104 15 171 34 219 63
222 63 332 -3 94 -57 172 -81 366 -111 192 -29 307 -30 377 -2 58 24 43 37
-52 46 -67 6 -91 14 -180 55 -65 30 -135 78 -180 123 -51 51 -54 59 -53 108 3
138 14 170 58 170 27 0 125 78 119 94 -8 20 -56 43 -109 52 -27 4 -59 10 -70
12 -11 2 -46 4 -77 6 -49 2 -58 -1 -58 -15 0 -9 -15 -24 -32 -33 -42 -21 -69
-38 -86 -53 -7 -7 -18 -13 -23 -13 -5 0 -8 -3 -8 -7 1 -5 1 -15 0 -23 -1 -13
-2 -13 -12 0 -8 11 -12 12 -16 3 -2 -7 -15 -13 -28 -13 -15 0 -31 -13 -49 -40
-14 -22 -33 -40 -41 -40 -8 0 -15 -4 -15 -8 0 -5 -11 -22 -24 -37 -14 -16 -24
-31 -24 -34 4 -18 -29 -61 -53 -72 -16 -6 -29 -15 -29 -20 0 -5 -8 -9 -18 -9
-10 0 -25 -8 -34 -19 -20 -23 -150 -40 -172 -22 -7 6 -24 11 -37 11 -13 0 -35
0 -49 1 -13 0 -35 9 -47 21 -13 12 -23 16 -23 10 0 -18 -126 -4 -179 20 -25
11 -55 24 -66 29 -11 5 -40 13 -63 18 -24 5 -54 18 -65 29 -12 10 -31 22 -42
26 -37 13 -85 51 -85 67 0 9 -7 19 -15 23 -8 3 -15 14 -15 24 0 11 -25 45 -55
77 -50 53 -70 95 -46 95 5 0 25 15 43 33 58 55 88 77 129 99 21 11 42 24 45
29 3 5 10 6 16 3 6 -4 29 2 52 13 86 43 175 67 246 66 20 -1 44 7 55 17 11 9
28 20 38 23 22 8 22 22 -3 47 -22 22 -79 27 -97 9 -9 -9 -16 -8 -28 5 -22 22
-40 20 -64 -5z"/>
<path d="M48071 5214 c0 -11 3 -14 6 -6 3 7 2 16 -1 19 -3 4 -6 -2 -5 -13z"/>
<path d="M42624 5100 c-12 -4 -24 -16 -28 -26 -7 -17 -21 -11 -21 9 0 15 -34
22 -47 9 -6 -6 -2 -17 13 -31 14 -13 18 -21 10 -21 -18 0 -51 -39 -51 -60 0
-9 -9 -26 -20 -38 -11 -12 -20 -25 -20 -30 0 -5 -7 -15 -15 -22 -8 -7 -15 -21
-15 -32 0 -31 -28 -83 -66 -123 -19 -20 -34 -43 -34 -51 0 -8 -4 -12 -10 -9
-5 3 -10 -1 -10 -9 0 -9 -16 -38 -35 -65 -19 -26 -35 -53 -35 -59 0 -5 -7 -22
-14 -38 -8 -15 -13 -31 -10 -36 8 -13 53 24 134 111 126 137 334 343 355 352
64 29 175 116 175 138 0 14 -23 19 -130 31 -110 11 -99 11 -126 0z"/>
<path d="M42401 4814 c0 -11 3 -14 6 -6 3 7 2 16 -1 19 -3 4 -6 -2 -5 -13z"/>
<path d="M49680 4750 c0 -5 5 -10 11 -10 5 0 7 5 4 10 -3 6 -8 10 -11 10 -2 0
-4 -4 -4 -10z"/>
<path d="M44780 4610 c0 -5 5 -10 10 -10 6 0 10 5 10 10 0 6 -4 10 -10 10 -5
0 -10 -4 -10 -10z"/>
<path d="M42110 4490 c0 -15 -61 -80 -73 -77 -6 1 -13 -8 -15 -21 -2 -15 -9
-22 -17 -18 -10 3 -12 0 -8 -11 4 -11 2 -14 -5 -9 -6 4 -24 0 -39 -8 -24 -13
-25 -15 -8 -16 19 -1 19 -1 1 -11 -13 -8 -20 -8 -25 0 -8 13 -33 -11 -44 -41
-4 -10 -14 -18 -23 -18 -9 0 -28 -12 -44 -27 -36 -36 -51 -47 -74 -56 -10 -4
-16 -10 -13 -14 4 -3 -14 -19 -39 -34 -24 -16 -47 -36 -51 -45 -3 -8 -11 -13
-17 -11 -7 3 -29 -14 -49 -38 -20 -23 -57 -55 -82 -71 -25 -15 -45 -32 -45
-36 0 -4 -6 -8 -14 -8 -8 0 -16 -7 -20 -15 -3 -8 -15 -15 -26 -15 -11 0 -20
-4 -20 -10 0 -5 -11 -12 -25 -16 -14 -3 -25 -12 -25 -19 0 -7 -14 -15 -31 -19
-17 -3 -43 -18 -58 -33 -35 -34 -66 -53 -86 -53 -9 0 -19 -8 -22 -17 -9 -25
-46 -63 -60 -63 -7 0 -13 -7 -13 -15 0 -8 -3 -15 -7 -15 -5 0 -28 -18 -52 -40
-25 -22 -52 -40 -62 -40 -10 0 -44 -25 -75 -56 -32 -30 -70 -62 -85 -70 -16
-8 -32 -20 -36 -28 -4 -8 -28 -24 -51 -36 -24 -13 -49 -35 -55 -49 -6 -14 -15
-28 -18 -31 -10 -7 -30 -85 -39 -150 -5 -30 -15 -82 -23 -115 -9 -33 -13 -63
-11 -67 3 -4 -1 -22 -9 -40 -8 -18 -20 -58 -27 -88 -7 -30 -17 -62 -21 -70
-29 -51 -69 -146 -69 -162 0 -9 -13 -46 -29 -80 -15 -35 -34 -81 -41 -103 -12
-39 -34 -91 -51 -127 -16 -31 -39 -103 -39 -119 0 -9 -7 -22 -15 -29 -8 -7
-15 -19 -15 -27 0 -8 -7 -21 -15 -30 -9 -8 -19 -28 -22 -44 -3 -16 -9 -29 -14
-29 -5 0 -9 -9 -9 -21 0 -33 18 -13 50 56 16 35 34 66 40 70 5 3 10 14 10 25
0 16 47 118 60 130 3 3 23 43 44 90 21 47 45 98 52 114 8 16 14 37 14 47 0 10
5 21 10 24 6 3 10 15 10 25 0 27 36 62 99 95 56 31 171 133 171 153 0 6 11 23
25 38 26 28 55 109 55 154 0 41 19 56 103 86 87 30 103 46 155 149 17 33 40
70 51 82 12 12 21 26 21 30 1 22 130 199 223 306 48 56 255 239 357 318 57 43
74 57 177 147 46 39 88 72 93 72 11 0 240 226 240 238 0 5 -9 12 -21 15 -12 3
-19 12 -17 19 3 7 -2 18 -11 25 -19 15 -51 17 -51 3z"/>
<path d="M49242 4440 c0 -14 2 -19 5 -12 2 6 2 18 0 25 -3 6 -5 1 -5 -13z"/>
<path d="M44560 4309 c0 -5 5 -7 10 -4 6 3 10 8 10 11 0 2 -4 4 -10 4 -5 0
-10 -5 -10 -11z"/>
<path d="M43041 2313 c1 -17 3 -21 6 -10 2 9 9 17 14 17 6 0 7 5 4 10 -12 19
-25 10 -24 -17z"/>
<path d="M51489 2068 c-7 -13 -15 -25 -19 -28 -26 -17 -91 -221 -110 -342 -13
-86 -55 -171 -111 -223 -27 -25 -49 -49 -49 -53 0 -4 -20 -26 -44 -49 -24 -24
-41 -45 -37 -47 4 -3 43 -6 86 -8 l79 -2 25 61 c14 34 41 79 59 99 21 24 29
40 23 48 -5 6 -7 55 -5 108 4 95 27 181 58 218 39 45 67 118 69 178 2 65 -5
77 -24 40z"/>
<path d="M50337 1317 c-4 -11 -5 -23 -1 -28 3 -5 -11 -9 -31 -9 -20 0 -34 -4
-31 -8 8 -13 67 -1 73 14 2 7 3 21 1 31 -3 17 -4 17 -11 0z"/>
<path d="M50280 1300 c0 -5 6 -10 14 -10 8 0 18 5 21 10 3 6 -3 10 -14 10 -12
0 -21 -4 -21 -10z"/>
<path d="M50355 1179 c-8 -23 -1 -34 14 -24 13 8 15 45 2 45 -5 0 -13 -9 -16
-21z"/>
<path d="M39845 1080 c-11 -21 -14 -42 -10 -62 6 -25 4 -30 -8 -25 -10 4 -19
-3 -27 -21 -6 -15 -22 -47 -35 -72 -14 -25 -25 -53 -25 -62 0 -9 -9 -37 -20
-63 -11 -26 -17 -51 -14 -56 3 -5 -2 -24 -11 -42 -9 -17 -30 -75 -47 -127 -17
-52 -36 -108 -43 -125 -7 -16 -15 -42 -19 -57 -6 -28 -6 -29 37 -32 6 -1 18
-11 25 -23 14 -26 42 -31 42 -8 0 8 7 15 15 15 8 0 28 20 45 45 31 45 112 210
125 255 4 14 15 39 24 55 10 17 32 72 49 122 18 50 50 120 72 157 22 36 40 70
40 75 0 6 -9 19 -20 29 -15 14 -36 19 -87 20 -50 0 -70 5 -79 17 -11 15 -14
13 -29 -15z m115 -206 c0 -8 -4 -14 -10 -14 -5 0 -10 9 -10 21 0 11 5 17 10
14 6 -3 10 -13 10 -21z"/>
</g>
</svg>
